<svg width="21" height="21" viewBox="0 0 21 21" fill="none" xmlns="http://www.w3.org/2000/svg">
<path d="M6.22992 2.51957C6.33152 2.41772 6.45222 2.3369 6.5851 2.28176C6.71798 2.22662 6.86043 2.19824 7.0043 2.19824C7.14816 2.19824 7.29062 2.22662 7.4235 2.28176C7.55638 2.3369 7.67707 2.41772 7.77867 2.51957L15.1374 9.87832C15.2185 9.95927 15.2829 10.0554 15.3268 10.1613C15.3707 10.2671 15.3933 10.3806 15.3933 10.4952C15.3933 10.6098 15.3707 10.7233 15.3268 10.8291C15.2829 10.935 15.2185 11.0311 15.1374 11.1121L7.77867 18.4708C7.34992 18.8996 6.65867 18.8996 6.22992 18.4708C5.80117 18.0421 5.80117 17.3508 6.22992 16.9221L12.6524 10.4996L6.22117 4.06832C5.80117 3.63957 5.80117 2.94832 6.22992 2.51957Z" fill="white"/>
</svg>
